<?xml version="1.0" encoding="utf-8"?>
<!-- Generator: Adobe Illustrator 17.1.0, SVG Export Plug-In . SVG Version: 6.00 Build 0)  -->
<!DOCTYPE svg PUBLIC "-//W3C//DTD SVG 1.1//EN" "http://www.w3.org/Graphics/SVG/1.1/DTD/svg11.dtd">
<svg version="1.1" id="Camada_1" xmlns="http://www.w3.org/2000/svg" xmlns:xlink="http://www.w3.org/1999/xlink" x="0px" y="0px"
	 viewBox="0 0 1368.7 914.3" enable-background="new 0 0 1368.7 914.3" xml:space="preserve">
<g>
	<g>
		<g>
			<path fill="#CC0001" d="M416.7-1.1c0,28,0,51.8,0,77.5c-16.7,0-32.7-0.7-48.6,0.1c-36.9,2-74.7,0.2-110.4,7.9
				C154.2,107,72.2,206.5,76.2,325.6c3.5,105,82.4,201.4,187.8,223.4c17.5,3.6,35.6,5.5,53.5,5.7c63,0.7,125.9,0.3,188.9,0.3
				c35.1,0,56.1-21,56.1-56.5c0.1-122.5,0.1-245,0.1-367.6c0-3.9-1.2-8.3,0.3-11.6c2.7-6.2,5.6-14.4,10.7-16.7
				c4.3-1.9,13.8,1.8,17.5,6c7.5,8.7,13,19.3,18.8,29.4c75.2,129.7,150.4,259.4,225.6,389.1c13.5,23.3,33.9,36,52.5,32.9
				c25.6-4.3,40-22.4,40.2-51.1c0.2-46.4,0.1-92.7,0.1-139.1c0-80.5,0-161.1,0-241.6c0-4.9-0.3-9.9,0.6-14.6
				c2.1-11.3,12.8-16.2,22-9.4c5.6,4.2,10.4,10.3,13.9,16.5c78.1,134.2,156,268.6,233.9,402.9c9.2,15.9,19.2,30.3,38.8,34.9
				c26.9,6.3,53.1-12.2,54.9-39.6c0.3-4.9,0.2-9.8,0.2-14.6c0-162.1,0-324.1,0-486.2c0-4.8,0-9.7,0-15.9c25.3,0,49.8,0,76.1,0
				c0,5.8,0,11.5,0,17.2c0,165.5,0.1,331-0.1,496.4c0,48.7-20.9,85.8-65.2,107c-44.7,21.4-87.3,12.6-123.8-18.5
				c-18.1-15.5-33.7-35.4-46.1-55.9c-42.8-70.8-83.7-142.8-125.3-214.3c-0.8-1.4-1.8-2.8-4.4-6.8c0,64.5,0.1,125.8,0,187.1
				c-0.1,45.9-18.3,82.4-58.9,105.4c-43.2,24.4-97.1,17.2-135.1-18.8c-15-14.2-28.6-30.9-39.2-48.6
				c-41.6-69.3-81.7-139.4-122.4-209.2c-2.1-3.6-4.4-7.1-8.9-14.4c0,27.8,0.3,51.5-0.1,75.1c-0.6,41.4,1,83.1-2.9,124.2
				c-6.1,63.8-48.6,102.1-113.1,103.3c-74.2,1.3-148.5,2.3-222.6-0.2C149.3,625.9,22.3,507,2.7,356.8C-19,190.5,92.1,34.6,259.6,5.9
				C310.4-2.8,363.4,0.9,416.7-1.1z"/>
			<path fill="#CC0001" d="M416.5,109.3c0,23.3,0,47.5,0,73.4c-32.4,0-64,0.5-95.6-0.1c-34.1-0.7-65,8.7-90.4,31.2
				c-40.6,35.9-56.9,81.2-43.1,134.3c14.1,54.5,49.9,90.8,105.9,97.7c47.2,5.8,95.4,3,143.2,3.3c11.9,0.1,18.4-8.1,19.9-19.6
				c0.6-4.8,0.3-9.7,0.3-14.6c0-99.6-0.2-199.2,0.1-298.8C457.1,56,491.5,11.1,548.1,0.1c49.9-9.7,90.7,10.6,120.6,49.3
				c20.7,26.8,37.1,57.1,54.4,86.4c31.7,53.6,62.8,107.7,94.1,161.5c0.4,0.8,1.2,1.3,3.9,4.2c0-7.2,0-12.2,0-17.2
				c0-55.7-0.4-111.3,0.1-167c0.5-60.5,35.4-105.9,92-117.3c45.5-9.1,84.3,7.7,113.8,41.7c18.3,21.1,32.8,45.8,47.2,70
				c37,62.3,73.1,125.3,111.8,192c0-103.1,0-202,0-302c26.3,0,50.9,0,76.3,0c0.3,4.3,0.8,8.1,0.8,11.8c0,165,0,330,0.1,495.1
				c0,10.5-1.4,21.9-14.5,20.1c-7.6-1.1-16.3-8.3-20.8-15.2c-13.6-20.7-25.3-42.7-37.8-64.1c-67.2-115.8-134.4-231.5-201.5-347.4
				c-9.3-16-21.4-28.1-40.5-30c-29-2.9-49.4,16.7-50.2,47.6c-0.5,18.1-0.1,36.1-0.1,54.2c0,109.8,0,219.7-0.1,329.5
				c0,9.9,2.8,22.1-10.8,25.5c-13.8,3.4-19.9-7.1-25.7-17C782.4,376.3,703.7,240.7,625,105.1c-11.4-19.7-25.6-34.4-50.6-33.2
				c-20.6,1-38.3,16.6-40.7,37c-0.9,7.2-0.8,14.6-0.8,21.9c-0.1,120.1-0.1,240.2-0.1,360.3c0,29-5.9,34.7-35.3,34.7
				c-59.6,0-119.1,0.1-178.7,0c-102.1-0.3-186.1-67.7-208.4-167.1c-25.7-114.3,54-233.3,170.3-248.4
				C324.7,104.5,370.1,109.3,416.5,109.3z"/>
		</g>
		<g>
			<path fill="#CC0001" d="M352.7,808.8c18.4,8.6,31.2,21.2,31.7,42.8c0.7,30.8-15.7,54.7-46.4,57.3c-36.6,3.1-73.7,0.7-111.5,0.7
				c0-62.1,0-125.2,0-190.6c16.9,0,33.8,0,50.6,0c15.1,0,30.2-0.2,45.4,0.1c25.9,0.5,44.4,12.2,50.9,31.7
				C380.9,772.7,374.5,790.9,352.7,808.8z M267.6,877.6c18.4,0,35.4,0.5,52.3-0.2c13.9-0.5,22.1-8.6,22.7-21.8
				c0.6-13.1-4.5-24.2-18.6-25.3c-18.6-1.5-37.3-0.4-56.4-0.4C267.6,845.5,267.6,860.5,267.6,877.6z M267.6,795
				c16.7,0,32.2,0.8,47.6-0.3c10.5-0.8,18.1-7.2,18.9-18.7c0.8-11.6-4.4-22.3-19.8-23.8c-16.6-1.6-28.6-1.1-46.7-1.1
				C267.6,766.9,267.6,779.9,267.6,795z"/>
			<path fill="#CC0001" d="M583.7,911.8c-15.8,0-28.8,0-43.8,0c-2.2-14.1-5-27.8-6.4-41.6c-2.4-24.7-8.3-30.9-32.5-31
				c-12.1-0.1-24.2,0-37.7,0c0,24.5,0,47.7,0,72c-14.8,0-28.2,0-42.9,0c0-63.3,0-126.9,0-190.5c37,0,74-1.5,110.7,0.5
				c22,1.2,38.9,14.3,43.2,37.3c4.7,25,0.8,47.9-25.2,61.6C585.7,841.3,570.9,880.6,583.7,911.8z M463.8,804.2
				c16.6,0,32.1,0.6,47.5-0.2c13.6-0.7,20.8-9.4,22-22.7c1.3-14.1-9.8-28.9-23.5-29.5c-16-0.7-28.8-0.7-46-0.7
				C463.8,769.9,463.8,785.9,463.8,804.2z"/>
			<path fill="#CC0001" d="M969.3,770.6l-42.6,0.1c0,0-0.6-4.5-1.5-7.4c-6.5-19.4-47.4-18.5-57.9-6c-10,11.9-5.4,27.7,10.5,31.7
				c17.9,4.6,36.1,7.6,54.1,12.1c27.2,6.7,42.5,23,44.2,45.8c2.1,29.1-9.3,50.3-35.4,61c-30.8,12.7-61.9,11.4-91.8-3.3
				c-20.2-9.9-30.1-26.8-30.6-50.7c13.7,0,27.1,0,40.8,0c11.1,24.9,27.6,32.8,55.7,25.8c10.9-2.7,18.6-9.4,19.2-21.1
				c0.6-11.3-6.5-18.4-16.8-21.1c-17.8-4.7-36-8.2-53.9-12.5c-26.2-6.3-40.8-21.2-42.8-43.4c-2.7-29,8.3-49.2,33.7-60
				c28.3-12.1,57-12.3,84.8,1.2C957.7,731.9,969,746.9,969.3,770.6z"/>
			<path fill="#CC0001" d="M755.1,911.8l-13.7-42.9h-73.3l-13.1,42.9H609c10.9-33.3,22.4-67.3,33.3-100.3
				c8.8-26.7,21.3-64.3,29.9-91.1H735c15.1,44.1,50.4,147.3,65.4,191.5H755.1z M731.1,835.3c-8.8-28.5-17.3-55.8-25.7-83.1
				c-1,0-1.9,0-2.9,0c-8,27.3-15.9,54.7-24.2,83.1C696.5,835.3,712,835.3,731.1,835.3z"/>
			<path fill="#CC0001" d="M1108.1,911.1c0-64,0-126.8,0-190.8c13.9,0,27.7,0,43.1,0c0,51.4,0,102.8,0,156.1c30.9,0,60.4,0,90.6,0
				c0,12.4,0,22.9,0,34.7C1197.7,911.1,1153.7,911.1,1108.1,911.1z"/>
			<path fill="#CC0001" d="M1057.5,720.1c0,64,0,127.1,0,191.2c-13.3,0-26.2,0-40.4,0c0-63.4,0-126.8,0-191.2
				C1030,720.1,1042.9,720.1,1057.5,720.1z"/>
		</g>
	</g>
</g>
</svg>
